<svg width="24" height="20" viewBox="0 0 24 20" fill="none" xmlns="http://www.w3.org/2000/svg"><path fill-rule="evenodd" clip-rule="evenodd" d="M1.5 12.5V1.5H22.5V12.5H18.5264C18.5013 12.4324 18.4765 12.3657 18.4521 12.3L18.452 12.2996L18.452 12.2996C18.1478 11.4804 17.8979 10.8074 17.7027 10.2059C17.408 9.29824 17.2669 8.635 17.2669 8H17.8527C18.15 8 18.3434 7.68707 18.2104 7.42111L16.8577 4.71554C16.7102 4.42072 16.2895 4.42072 16.1421 4.71554L14.7893 7.42111C14.6563 7.68707 14.8497 8 15.1471 8H15.7669C15.7669 8.865 15.962 9.70176 16.2759 10.669C16.4506 11.207 16.6711 11.811 16.9263 12.5H13.5264L13.452 12.2996L13.452 12.2996C13.1478 11.4804 12.8979 10.8074 12.7027 10.2059C12.408 9.29824 12.2669 8.635 12.2669 8H12.8527C13.15 8 13.3434 7.68707 13.2104 7.42111L11.8577 4.71554C11.7102 4.42072 11.2895 4.42072 11.1421 4.71554L9.78933 7.42111C9.65635 7.68707 9.84974 8 10.1471 8H10.7669C10.7669 8.865 10.962 9.70176 11.2759 10.669C11.4506 11.207 11.6711 11.811 11.9263 12.5H8.5264L8.45198 12.2996L8.45198 12.2996L8.45196 12.2995C8.14776 11.4803 7.89788 10.8074 7.70265 10.2059C7.40802 9.29824 7.26694 8.635 7.26694 8H7.85267C8.15002 8 8.34342 7.68707 8.21044 7.42111L6.85766 4.71554C6.71025 4.42072 6.28952 4.42072 6.14211 4.71554L4.78933 7.42111C4.65635 7.68707 4.84975 8 5.1471 8H5.76694C5.76694 8.865 5.96196 9.70176 6.27593 10.669C6.45055 11.207 6.67109 11.811 6.92633 12.5H1.5ZM17.4809 14H14.0691C14.5883 15.7262 13.8821 17.0423 13.1547 18.0124C12.9663 18.2637 12.7707 18.4998 12.5943 18.7124L12.5835 18.7253C12.4069 18.9381 12.2532 19.1233 12.1209 19.3004C11.8316 19.6877 11.7626 19.8896 11.7626 20H10.2626C10.2626 19.3604 10.6132 18.8123 10.9192 18.4027C11.075 18.1941 11.2507 17.9825 11.418 17.7809L11.44 17.7544C11.6186 17.5393 11.7915 17.3301 11.9546 17.1126C12.5974 16.2552 12.9911 15.4033 12.5742 14.2561L12.4809 14H9.06914C9.58827 15.7262 8.88206 17.0423 8.1547 18.0124C7.96631 18.2637 7.77074 18.4998 7.59425 18.7124L7.58354 18.7253C7.40689 18.9381 7.25317 19.1233 7.12087 19.3004C6.83158 19.6877 6.76258 19.8896 6.76258 20H5.26258C5.26258 19.3604 5.61316 18.8123 5.91917 18.4027C6.075 18.1941 6.25068 17.9825 6.41804 17.7809L6.44004 17.7544C6.61858 17.5393 6.7915 17.3301 6.95456 17.1126C7.59743 16.2552 7.99107 15.4033 7.57425 14.2561L7.48088 14H1C0.447716 14 0 13.5523 0 13V1C0 0.447716 0.447715 0 1 0H23C23.5523 0 24 0.447715 24 1V13C24 13.5523 23.5523 14 23 14H19.0691C19.5883 15.7262 18.8821 17.0423 18.1547 18.0124C17.9663 18.2637 17.7707 18.4998 17.5943 18.7124L17.5835 18.7253C17.4069 18.9381 17.2532 19.1233 17.1209 19.3004C16.8316 19.6877 16.7626 19.8896 16.7626 20H15.2626C15.2626 19.3604 15.6132 18.8123 15.9192 18.4027C16.075 18.1941 16.2507 17.9825 16.418 17.7809L16.44 17.7544C16.6186 17.5393 16.7915 17.3301 16.9546 17.1126C17.5974 16.2552 17.9911 15.4033 17.5742 14.2561C17.5428 14.1697 17.5117 14.0843 17.4809 14Z" fill="white"></path></svg>