<svg width="27" height="20" viewBox="0 0 27 20" fill="none" xmlns="http://www.w3.org/2000/svg"><path fill-rule="evenodd" clip-rule="evenodd" d="M13.0544 1.5C17.2085 1.5 21.2229 3.06277 24.3816 5.89877L19.1688 11.3858C19.0118 10.9558 18.8745 10.5679 18.757 10.2059C18.4624 9.29824 18.3213 8.635 18.3213 8H18.9071C19.2044 8 19.3978 7.68707 19.2648 7.42111L17.912 4.71554C17.7646 4.42072 17.3439 4.42072 17.1965 4.71554L15.8437 7.42111C15.7107 7.68707 15.9041 8 16.2015 8H16.8213C16.8213 8.865 17.0163 9.70176 17.3303 10.669C17.5132 11.2324 17.7464 11.8682 18.0171 12.5982L17.6063 13.0306C16.6108 12.3236 15.4715 11.854 14.2708 11.6636C14.0706 11.1205 13.8993 10.6442 13.757 10.2059C13.4624 9.29824 13.3213 8.635 13.3213 8H13.9071C14.2044 8 14.3978 7.68707 14.2648 7.42111L12.912 4.71554C12.7646 4.42072 12.3439 4.42072 12.1965 4.71554L10.8437 7.42111C10.7107 7.68707 10.9041 8 11.2015 8H11.8213C11.8213 8.865 12.0163 9.70176 12.3303 10.669C12.4225 10.9529 12.5274 11.2552 12.6435 11.5787C11.5574 11.6362 10.5054 11.9207 9.54487 12.4032C9.53196 12.3685 9.51914 12.3339 9.50642 12.2997L9.50638 12.2996L9.50637 12.2996C9.20216 11.4804 8.95228 10.8074 8.75704 10.2059C8.46241 9.29824 8.32133 8.635 8.32133 8H8.90706C9.20442 8 9.39782 7.68707 9.26484 7.42111L7.91205 4.71554C7.76464 4.42072 7.34392 4.42072 7.19651 4.71554L5.84372 7.42111C5.71074 7.68707 5.90414 8 6.20149 8H6.82133C6.82133 8.865 7.01635 9.70176 7.33032 10.669C7.50238 11.1991 7.719 11.7933 7.96947 12.4696L1.72716 5.89877C4.88583 3.06277 8.90025 1.5 13.0544 1.5ZM8.73472 14.6121C8.35869 14.7102 7.95025 14.6273 7.67264 14.335L0.273647 6.54661C-0.0930208 6.16065 -0.0948553 5.55291 0.290198 5.18528C3.77712 1.85618 8.32484 0 13.0544 0C17.7839 0 22.3316 1.85618 25.8185 5.18528C26.2036 5.55291 26.2017 6.16065 25.8351 6.54661L19.7487 12.9533C19.8411 13.2035 19.9377 13.4665 20.0385 13.7439C20.7117 15.5967 19.972 16.9948 19.2091 18.0124C19.0207 18.2637 18.8251 18.4998 18.6486 18.7124L18.6379 18.7253C18.4613 18.9381 18.3076 19.1233 18.1753 19.3004C17.886 19.6877 17.817 19.8896 17.817 20H16.317C16.317 19.3604 16.6676 18.8123 16.9736 18.4027C17.1294 18.1941 17.3051 17.9825 17.4724 17.7809L17.4944 17.7544C17.673 17.5393 17.8459 17.3301 18.009 17.1126C18.6518 16.2552 19.0455 15.4033 18.6286 14.2561C18.6178 14.2262 18.6069 14.1963 18.5961 14.1666L18.4361 14.335C18.0418 14.75 17.3837 14.7429 16.9293 14.3948C16.3116 13.9216 15.6219 13.5664 14.8922 13.3432C14.9399 13.4734 14.9887 13.6069 15.0385 13.7439C15.7117 15.5967 14.972 16.9948 14.2091 18.0124C14.0207 18.2637 13.8251 18.4998 13.6486 18.7124L13.6379 18.7253C13.4613 18.9381 13.3076 19.1233 13.1753 19.3004C12.886 19.6877 12.817 19.8896 12.817 20H11.317C11.317 19.3604 11.6676 18.8123 11.9736 18.4027C12.1294 18.1941 12.3051 17.9825 12.4724 17.7809L12.4944 17.7544C12.673 17.5393 12.8459 17.3301 13.009 17.1126C13.6518 16.2552 14.0455 15.4033 13.6286 14.2561C13.4759 13.8359 13.3299 13.4411 13.192 13.0693C13.1462 13.0683 13.1003 13.0678 13.0544 13.0678C12.006 13.0678 10.9834 13.3309 10.0663 13.8224C10.6907 15.6363 9.96119 17.0093 9.20909 18.0124C9.0207 18.2637 8.82514 18.4998 8.64864 18.7124L8.63793 18.7253C8.46129 18.9381 8.30756 19.1233 8.17526 19.3004C7.88597 19.6877 7.81697 19.8896 7.81697 20H6.31697C6.31697 19.3604 6.66755 18.8123 6.97356 18.4027C7.12939 18.1941 7.30507 17.9825 7.47243 17.7809L7.49444 17.7544C7.67298 17.5393 7.84589 17.3301 8.00895 17.1126C8.58353 16.3462 8.95901 15.5844 8.73472 14.6121Z" fill="white"></path></svg>