<svg width="30" height="16" viewBox="0 0 30 16" fill="none" xmlns="http://www.w3.org/2000/svg"><path d="M19 4H14C12.3431 4 11 5.34315 11 7C11 8.65685 12.3431 10 14 10H19V10.3577C19 10.511 19.1653 10.6073 19.2986 10.5317L21.6532 9.19664C21.7963 9.11547 21.7857 8.90579 21.635 8.83957L19.2805 7.80461C19.1483 7.74651 19 7.84332 19 7.9877V8.5H14C13.1716 8.5 12.5 7.82843 12.5 7C12.5 6.17157 13.1716 5.5 14 5.5H19V4Z" fill="white"></path><path fill-rule="evenodd" clip-rule="evenodd" d="M24.46 13.3571H27.8571C29.0406 13.3571 30 12.3978 30 11.2143V8.25293C30 7.44128 29.5414 6.69928 28.8155 6.3363L25.7143 4.78571L23.1429 1.35714C22.7382 0.817559 22.1031 0.5 21.4286 0.5H12.8542C12.3037 0.5 11.7743 0.711874 11.3758 1.09169L7.5 4.78571L1.55417 6.48452C0.634237 6.74736 0 7.58819 0 8.54493V11.2143C0 12.3978 0.959391 13.3571 2.14286 13.3571H5.54004C5.9813 14.6056 7.17191 15.5 8.57143 15.5C9.97095 15.5 11.1616 14.6056 11.6028 13.3571H18.3972C18.8384 14.6056 20.029 15.5 21.4286 15.5C22.8281 15.5 24.0187 14.6056 24.46 13.3571ZM8.32221 6.22225L1.99568 8.02983C1.7657 8.09554 1.60714 8.30575 1.60714 8.54493V11.2143C1.60714 11.5102 1.84699 11.75 2.14286 11.75H6.4901C6.76616 11.75 6.96147 12.0294 6.96595 12.3055C6.97216 12.6881 7.1133 13.0664 7.37351 13.3571C7.66779 13.6859 8.09545 13.8929 8.57143 13.8929C9.04741 13.8929 9.47506 13.6859 9.76934 13.3571C10.0296 13.0664 10.1707 12.6881 10.1769 12.3055C10.1814 12.0294 10.3767 11.75 10.6528 11.75H19.3472C19.6233 11.75 19.8186 12.0294 19.8231 12.3055C19.8293 12.6881 19.9704 13.0664 20.2307 13.3571C20.5249 13.6859 20.9526 13.8929 21.4286 13.8929C21.9046 13.8929 22.3322 13.6859 22.6265 13.3571C22.8867 13.0664 23.0278 12.6881 23.034 12.3055C23.0385 12.0294 23.2338 11.75 23.5099 11.75H27.8571C28.153 11.75 28.3929 11.5102 28.3929 11.2143V8.25293C28.3929 8.05002 28.2782 7.86452 28.0967 7.77377L24.6562 6.05352L21.8571 2.32143C21.756 2.18653 21.5972 2.10714 21.4286 2.10714H12.8542C12.7166 2.10714 12.5842 2.16011 12.4846 2.25506L8.32221 6.22225Z" fill="white"></path></svg>